<svg xmlns="http://www.w3.org/2000/svg" viewBox="0 0 1200 400" width="1200" height="400">
  <defs>
    <linearGradient id="bg" x1="0%" y1="0%" x2="100%" y2="100%">
      <stop offset="0%" style="stop-color:#0a0a0a"/>
      <stop offset="50%" style="stop-color:#111111"/>
      <stop offset="100%" style="stop-color:#0d0d0d"/>
    </linearGradient>
    <radialGradient id="glow1" cx="16%" cy="55%" r="28%">
      <stop offset="0%" style="stop-color:#1ABC9C;stop-opacity:0.15"/>
      <stop offset="100%" style="stop-color:#1ABC9C;stop-opacity:0"/>
    </radialGradient>
    <radialGradient id="glow2" cx="28%" cy="30%" r="18%">
      <stop offset="0%" style="stop-color:#1ABC9C;stop-opacity:0.08"/>
      <stop offset="100%" style="stop-color:#1ABC9C;stop-opacity:0"/>
    </radialGradient>
  </defs>
  <rect width="1200" height="400" fill="url(#bg)"/>
  <rect width="1200" height="400" fill="url(#glow1)"/>
  <rect width="1200" height="400" fill="url(#glow2)"/>

  <circle cx="231" cy="112" r="2.6" fill="white" opacity="0.4"/>
  <circle cx="101" cy="63" r="1.7" fill="white" opacity="0.7"/>
  <circle cx="76" cy="349" r="2.8" fill="white" opacity="0.8"/>
  <circle cx="120" cy="208" r="1.7" fill="white" opacity="0.7"/>
  <circle cx="362" cy="260" r="2.0" fill="white" opacity="0.8"/>
  <circle cx="240" cy="166" r="2.3" fill="white" opacity="0.6"/>
  <circle cx="386" cy="133" r="1.9" fill="white" opacity="0.6"/>
  <circle cx="155" cy="245" r="1.9" fill="white" opacity="0.7"/>
  <circle cx="270" cy="360" r="1.6" fill="white" opacity="0.4"/>
  <circle cx="354" cy="264" r="3.2" fill="white" opacity="0.5"/>
  <circle cx="211" cy="267" r="2.6" fill="white" opacity="0.3"/>
  <circle cx="94" cy="314" r="2.7" fill="white" opacity="0.8"/>
  <circle cx="309" cy="84" r="3.2" fill="white" opacity="0.8"/>
  <circle cx="427" cy="33" r="2.1" fill="white" opacity="0.7"/>
  <circle cx="215" cy="211" r="1.7" fill="white" opacity="0.6"/>
  <circle cx="209" cy="246" r="2.1" fill="white" opacity="0.3"/>
  <circle cx="109" cy="210" r="3.0" fill="white" opacity="0.8"/>
  <circle cx="53" cy="243" r="3.0" fill="white" opacity="0.6"/>
  <circle cx="303" cy="36" r="2.4" fill="white" opacity="0.5"/>
  <circle cx="75" cy="339" r="3.2" fill="white" opacity="0.4"/>
  <circle cx="218" cy="262" r="1.8" fill="white" opacity="0.4"/>
  <circle cx="237" cy="208" r="2.3" fill="white" opacity="0.7"/>
  <circle cx="319" cy="59" r="1.9" fill="white" opacity="0.6"/>
  <circle cx="124" cy="348" r="2.3" fill="white" opacity="0.4"/>
  <circle cx="105" cy="237" r="1.5" fill="white" opacity="0.4"/>
  <circle cx="115" cy="32" r="3.1" fill="white" opacity="0.5"/>
  <circle cx="216" cy="71" r="1.6" fill="white" opacity="0.8"/>
  <circle cx="109" cy="277" r="2.4" fill="white" opacity="0.5"/>
  <circle cx="36" cy="141" r="2.9" fill="white" opacity="0.5"/>
  <circle cx="91" cy="143" r="1.8" fill="white" opacity="0.3"/>
  <circle cx="219" cy="111" r="2.4" fill="white" opacity="0.4"/>
  <circle cx="420" cy="148" r="2.9" fill="white" opacity="0.7"/>
  <circle cx="356" cy="105" r="1.9" fill="white" opacity="0.7"/>
  <circle cx="66" cy="277" r="3.3" fill="white" opacity="0.5"/>
  <circle cx="100" cy="325" r="1.7" fill="white" opacity="0.5"/>
  <circle cx="367" cy="250" r="3.1" fill="white" opacity="0.6"/>
  <circle cx="159" cy="243" r="1.6" fill="white" opacity="0.8"/>
  <circle cx="89" cy="310" r="2.8" fill="white" opacity="0.5"/>
  <circle cx="167" cy="149" r="2.7" fill="white" opacity="0.5"/>
  <circle cx="244" cy="193" r="2.3" fill="white" opacity="0.7"/>
  <circle cx="94" cy="188" r="2.8" fill="white" opacity="0.6"/>
  <circle cx="253" cy="362" r="3.3" fill="white" opacity="0.7"/>
  <circle cx="175" cy="238" r="2.7" fill="white" opacity="0.3"/>
  <circle cx="171" cy="170" r="3.4" fill="white" opacity="0.3"/>
  <circle cx="232" cy="209" r="2.0" fill="white" opacity="0.5"/>
  <circle cx="154" cy="177" r="3.3" fill="white" opacity="0.4"/>
  <circle cx="411" cy="98" r="1.6" fill="white" opacity="0.3"/>
  <circle cx="352" cy="338" r="2.8" fill="white" opacity="0.7"/>
  <circle cx="389" cy="169" r="3.5" fill="white" opacity="0.6"/>
  <circle cx="407" cy="359" r="1.6" fill="white" opacity="0.4"/>

  <line x1="185" y1="250" x2="242" y2="210" stroke="white" stroke-width="0.5" opacity="0.12"/>
  <line x1="326" y1="144" x2="375" y2="151" stroke="white" stroke-width="0.5" opacity="0.12"/>
  <line x1="373" y1="80" x2="421" y2="35" stroke="white" stroke-width="0.5" opacity="0.12"/>
  <line x1="403" y1="243" x2="464" y2="193" stroke="white" stroke-width="0.5" opacity="0.12"/>
  <line x1="65" y1="216" x2="145" y2="177" stroke="white" stroke-width="0.5" opacity="0.12"/>
  <line x1="290" y1="145" x2="345" y2="152" stroke="white" stroke-width="0.5" opacity="0.12"/>
  <line x1="287" y1="355" x2="328" y2="357" stroke="white" stroke-width="0.5" opacity="0.12"/>
  <line x1="398" y1="156" x2="471" y2="149" stroke="white" stroke-width="0.5" opacity="0.12"/>
  <line x1="194" y1="217" x2="242" y2="215" stroke="white" stroke-width="0.5" opacity="0.12"/>
  <line x1="54" y1="117" x2="117" y2="164" stroke="white" stroke-width="0.5" opacity="0.12"/>
  <line x1="318" y1="218" x2="367" y2="234" stroke="white" stroke-width="0.5" opacity="0.12"/>
  <line x1="233" y1="92" x2="275" y2="142" stroke="white" stroke-width="0.5" opacity="0.12"/>

  <line x1="480" y1="50" x2="480" y2="350" stroke="white" stroke-width="0.5" opacity="0.12"/>

  <text x="540" y="120" font-family="'SF Pro Display','Helvetica Neue',Arial,sans-serif" font-size="72" font-weight="800" fill="white" letter-spacing="6">MODEL DEPLOY</text>
  <text x="540" y="185" font-family="'Noto Sans SC','PingFang SC','Microsoft YaHei',sans-serif" font-size="22" font-weight="500" fill="white" opacity="0.9" letter-spacing="3">本地模型部署工具</text>
  <text x="540" y="225" font-family="'Noto Sans SC','PingFang SC','Microsoft YaHei',sans-serif" font-size="14" font-weight="300" fill="white" opacity="0.5" letter-spacing="1.5">量化部署 · vLLM 推理 · OpenAI 兼容 API · GPU 优化</text>
  <text x="540" y="275" font-family="'SF Mono','Fira Code','Consolas',monospace" font-size="12" fill="white" opacity="0.4" letter-spacing="1.5">Python · vLLM · Ollama</text>
  <line x1="540" y1="315" x2="1170" y2="315" stroke="white" stroke-width="0.5" opacity="0.1"/>
  <text x="540" y="345" font-family="'SF Mono','Fira Code','Consolas',monospace" font-size="10" fill="white" opacity="0.3" letter-spacing="1">DEPLOYMENT · LLM · VLLM · QUANTIZATION</text>
</svg>